<?xml version="1.0" encoding="utf-8"?>
<!-- Generator: Adobe Illustrator 26.3.1, SVG Export Plug-In . SVG Version: 6.00 Build 0)  -->
<svg version="1.1" id="Layer_1" xmlns="http://www.w3.org/2000/svg" xmlns:xlink="http://www.w3.org/1999/xlink" x="0px" y="0px"
	 viewBox="0 0 90 90" style="enable-background:new 0 0 90 90;" xml:space="preserve">
<style type="text/css">
	.st0{fill:#005A84;}
</style>
<g>
	<path class="st0" d="M73.49,33.16c0,0,0.01,0,0.02,0c1.35-0.01,2.45-1.13,2.44-2.48c-0.01-0.76-0.6-1.37-1.37-1.39h-2.2
		C71.57,29.31,71,29.92,71,30.74c0,0.63,0.27,1.26,0.73,1.72C72.2,32.91,72.82,33.16,73.49,33.16z M74.15,31.02
		c-0.02,0.08-0.08,0.15-0.13,0.21c-0.14,0.14-0.33,0.23-0.54,0.23c-0.21,0-0.39-0.08-0.52-0.22c-0.07-0.07-0.12-0.13-0.15-0.22
		H74.15z"/>
	<path class="st0" d="M70.92,17.55c-0.07-0.01-0.13-0.02-0.2-0.01c-0.74,0.08-1.51,0.17-2.27,0.29c-0.47,0.08-0.75,0.48-0.69,0.97
		c0.07,0.43,0.4,0.7,0.84,0.7h0.1l0.6-0.08c0.52-0.07,1.05-0.13,1.57-0.2c0.05-0.01,0.1-0.02,0.15-0.04
		c0.37-0.12,0.61-0.46,0.59-0.85c-0.01-0.24-0.13-0.46-0.31-0.61C71.21,17.63,71.08,17.56,70.92,17.55z"/>
	<path class="st0" d="M75.94,19.2c0.04,0.02,0.09,0.02,0.14,0.04c0.71,0.09,1.42,0.2,2.13,0.27c0.05,0,0.09,0.01,0.13,0.01
		c0.45,0,0.79-0.29,0.84-0.73c0.07-0.48-0.23-0.9-0.71-0.97c-0.51-0.08-1.03-0.15-1.53-0.22l-0.67-0.09h-0.02
		c-0.08,0-0.15,0.01-0.22,0.04c-0.39,0.08-0.68,0.38-0.7,0.78C75.28,18.72,75.54,19.08,75.94,19.2z"/>
	<path class="st0" d="M73.83,19.14c0.07,0,0.14-0.01,0.22-0.01c0.04,0,0.08,0,0.12-0.01c0.43-0.07,0.7-0.39,0.71-0.82
		c0.01-0.4-0.24-0.74-0.62-0.83v-0.01c-0.05-0.01-0.12-0.02-0.17-0.02c-0.39-0.02-0.81-0.02-1.2,0c-0.07,0-0.12,0.01-0.16,0.02H72.7
		c-0.37,0.12-0.61,0.44-0.6,0.82c0,0.43,0.29,0.75,0.69,0.84c0.04,0,0.08,0.01,0.12,0.01c0.14,0.01,0.27,0.01,0.4,0h0.33
		C73.7,19.12,73.76,19.14,73.83,19.14z"/>
	<path class="st0" d="M24.11,39.16c0.25,0,0.51,0,0.76,0h0.34h0.33c0.11,0,0.22,0,0.33,0c0.15,0,0.29,0,0.45,0
		c0.46-0.01,0.78-0.32,0.78-0.74c0.01-0.44-0.32-0.76-0.76-0.78c-0.75-0.01-1.5-0.01-2.25,0c-0.23,0-0.44,0.09-0.58,0.25
		c-0.14,0.15-0.21,0.35-0.2,0.56C23.33,38.86,23.66,39.15,24.11,39.16z"/>
	<path class="st0" d="M84.6,45.56v-0.01v-0.78c-0.04-4.3-2.87-7.83-7.02-8.78c-0.29-0.07-0.6-0.12-0.91-0.15
		c-0.05-0.01-0.12-0.01-0.16-0.02V35.8c0-0.23,0-0.47-0.01-0.7c0-0.15,0.02-0.23,0.14-0.32c0.17-0.13,0.31-0.28,0.45-0.44
		c0.08-0.09,0.14-0.16,0.22-0.24l0.07-0.07c0.13-0.12,0.24-0.23,0.37-0.31c1.99-1.1,3.4-2.73,4.17-4.85
		c0.05-0.14,0.09-0.17,0.2-0.22c1.18-0.44,1.97-1.56,1.96-2.81c0-1.23-0.81-2.36-1.98-2.8l-0.17-0.07v-0.92
		c0.01-0.92,0.01-1.82,0-2.73c-0.01-1.73-1.11-3.27-2.74-3.85c-0.17-0.07-0.36-0.12-0.55-0.15l-0.23-0.07l-9.7-0.01l-0.21,0.07
		c-1.82,0.35-3.11,1.67-3.34,3.47c-0.08,0.55-0.08,1.11-0.07,1.65V23c-1.29,0.44-2.11,1.45-2.14,2.71
		c-0.05,1.38,0.69,2.48,2.02,3.02c0.02,0.01,0.08,0.07,0.09,0.12c0.73,1.98,1.97,3.51,3.69,4.6c0.47,0.28,0.92,0.56,1.22,0.99
		c0.1,0.14,0.23,0.24,0.35,0.33c0.03,0.04,0.09,0.08,0.14,0.12l0.02,0.02c0.01,0.31,0,0.61,0,0.92v0.02c-2.74,0.27-5.15,1.76-6.6,4
		c-0.04-0.23-0.1-0.46-0.14-0.69c-0.42-1.91-0.88-4.08-1.7-6.09c-0.8-1.96-2.16-3.27-4.08-3.88c-1.52-0.49-3.07-0.95-4.57-1.4
		l-0.26-0.08c-0.22-0.07-0.5-0.03-0.72,0.09c-0.19,0.1-0.36,0.13-0.47,0.08c-0.14-0.07-0.21-0.24-0.25-0.38
		c-0.04-0.16-0.09-0.34-0.13-0.5c-0.08-0.34-0.16-0.68-0.26-1.01c-0.07-0.21-0.03-0.31,0.12-0.47c1.13-1.18,1.87-2.55,2.2-4.05
		c0.03-0.13,0.04-0.14,0.14-0.19c1.33-0.58,2.24-2.67,1.76-4.11c-0.04-0.13-0.1-0.29-0.24-0.42c-0.24-0.17-0.24-0.39-0.24-0.79
		v-0.75c0-0.32,0-0.63-0.01-0.95c-0.09-2.43-0.46-4.4-1.17-6.21c-0.21-0.54-0.52-0.87-0.95-1.02l-0.32-0.11
		c-0.74-0.25-1.52-0.51-2.31-0.68c-0.62-0.13-1.26-0.19-1.87-0.25c-0.27-0.02-0.54-0.05-0.84-0.09h-3.15L44.2,5.95
		C44.04,5.97,43.87,5.99,43.7,6c-1.22,0.1-2.67,0.27-4.06,0.79C38.71,7.13,38.18,7.68,38,8.51c-0.03,0.13-0.08,0.26-0.12,0.38
		c-0.03,0.1-0.07,0.2-0.1,0.29c-0.59,1.96-0.84,4.14-0.79,6.85c0.01,0.34,0,0.5-0.17,0.64c-0.2,0.16-0.28,0.44-0.34,0.59
		c-0.44,1.41,0.46,3.4,1.81,4.03c0.04,0.02,0.09,0.05,0.09,0.05c0.32,1.6,1.08,2.99,2.33,4.29c0.03,0.04,0.08,0.1,0.08,0.07
		c-0.14,0.63-0.29,1.3-0.5,1.97c-0.03,0.1-0.09,0.17-0.19,0.21c-0.13,0.05-0.29,0.03-0.44-0.05c-0.23-0.13-0.55-0.16-0.79-0.1
		c-1.43,0.42-2.97,0.86-4.5,1.35c-1.64,0.52-2.76,1.3-3.55,2.46c-0.04,0.07-0.09,0.14-0.13,0.21c-0.52-0.37-1.13-0.66-1.79-0.81
		c-0.78-0.17-1.56-0.35-2.34-0.51c-0.71-0.14-1.42-0.29-2.13-0.45c-0.21-0.05-0.44-0.17-0.6-0.33c-0.12-0.1-0.15-0.16-0.17-0.17
		c0.02-0.02,0.09-0.08,0.22-0.15c0.98-0.56,1.45-1.42,1.41-2.52c-0.01-0.28-0.01-0.55-0.01-0.82v-0.13
		c0.94-0.17,1.56-0.75,1.75-1.66c0.2-0.92-0.13-1.69-0.92-2.22c0.05-0.4,0.13-0.83,0.2-1.23l0.13-0.83c0.1-0.56,0.21-1.15,0.07-1.76
		c-0.33-1.51-1.31-2.57-2.94-3.15c-0.23-0.08-0.47-0.14-0.73-0.2c-0.1-0.01-0.21-0.04-0.31-0.07l-3.81-0.01l-0.08,0.05
		c-0.54,0.32-0.48,0.74-0.43,0.96c0.17,0.54,0.73,0.54,0.9,0.54c0.51-0.01,1.04-0.01,1.56-0.01h0.68c-1.28,1.22-4.02,3-5.39,3.46
		c-0.02-0.15-0.05-0.29-0.08-0.45c-0.17-0.92,0.13-1.67,0.91-2.28c0.15-0.12,0.31-0.21,0.47-0.29c0.1-0.07,0.2-0.12,0.29-0.16
		c0.36-0.23,0.48-0.63,0.31-1.01c-0.2-0.37-0.6-0.51-0.99-0.36c-0.1,0.04-0.2,0.09-0.29,0.14c-1.6,0.82-2.49,2.44-2.24,4.05
		c0.14,0.9,0.28,1.8,0.44,2.71l0.32-0.05l-0.35,0.14c-0.83,0.52-1.19,1.49-0.9,2.4c0.25,0.83,0.83,1.34,1.72,1.51v0.75
		c-0.05,1.1,0.43,1.94,1.38,2.51c0.14,0.08,0.2,0.12,0.21,0.12c-0.01,0.03-0.05,0.1-0.16,0.22c-0.02,0.04-0.05,0.07-0.08,0.09
		c-0.37-0.37-0.83-0.51-1.35-0.39c-0.97,0.21-1.96,0.43-2.93,0.63l-0.22,0.05c-0.54,0.13-0.91,0.47-1.05,0.98
		c-0.02,0.07-0.02,0.08-0.14,0.12c-1.77,0.71-2.88,2.04-3.18,3.83c-0.14,0.83-0.2,1.67-0.25,2.48c-0.01,0.31-0.04,0.59-0.05,0.88
		l-0.22,2.8c-0.1,1.27-0.2,2.55-0.29,3.81c-0.01,0.15-0.01,0.32,0.02,0.48c-0.05,0.12-0.08,0.23-0.08,0.36
		c0,1.34,0.08,2.68,0.21,3.99c0,0.01,0,0.01,0,0.01c0.07,0.59,0.14,1.18,0.23,1.76c0.42,2.73,1.14,5.36,2.09,7.88
		c0.12,0.34,0.24,0.67,0.37,0.99c0.07,0.17,0.15,0.34,0.22,0.5c5.25,12.71,17.1,22,31.28,23.57c0.39,0.05,0.79,0.09,1.2,0.12
		c0.99,0.09,2.01,0.13,3.03,0.13c1.03,0,2.03-0.04,3.03-0.13c0.4-0.02,0.81-0.07,1.2-0.12c6.88-0.75,13.21-3.35,18.51-7.25
		c0.64-0.47,1.27-0.96,1.88-1.46c0.07-0.05,0.14-0.11,0.21-0.16c7.18-5.95,12.19-14.42,13.63-24.07c0.09-0.59,0.16-1.18,0.23-1.76
		c0,0,0,0,0-0.01c0.13-1.3,0.21-2.64,0.21-3.99C84.62,45.69,84.61,45.63,84.6,45.56z M25.29,23.24c0.13,0.1,0.22,0.28,0.23,0.43
		c0,0.23-0.08,0.39-0.23,0.51V23.24z M15.5,24.41c-0.14-0.09-0.23-0.24-0.25-0.4c-0.02-0.24,0.07-0.44,0.25-0.56V24.41z
		 M45.74,81.97c-5.66,0-10.86-7.05-13.78-17.29c4.26,0.79,8.9,1.21,13.78,1.21c4.88,0,9.5-0.43,13.77-1.21
		C56.58,74.91,51.4,81.97,45.74,81.97z M40.18,8.56c1.15-0.47,2.37-0.61,3.31-0.69c2.55-0.21,4.63-0.13,6.58,0.22
		c0.52,0.1,1.06,0.27,1.58,0.45l0.31,0.1C52,8.65,52.08,8.72,52.1,8.78c0.58,1.46,0.9,3.11,1.02,5.18H38.88V13.9
		c0.01-0.26,0.02-0.52,0.05-0.79c0.13-1.51,0.42-2.87,0.87-4.16C39.87,8.75,39.97,8.65,40.18,8.56z M40.77,34.77
		c0.45,0.19,0.57,0.37,0.57,0.83c-0.02,1.32-0.02,2.64-0.02,3.97c0,0.62,0,1.23,0,1.86c0,1.28,0.54,2.29,1.61,3.02l0.73,0.49h-5.44
		c0.02-1.31,0.02-2.64,0.01-3.93c0-0.17-0.05-0.32-0.13-0.46c-0.13-0.35-0.46-0.59-0.86-0.59c-0.51,0-0.9,0.37-0.93,0.91v1.34
		c0,0.91,0,1.81-0.01,2.72v0.01h-7.27l0.38-1.79c0.49-2.28,0.99-4.64,1.53-6.96c0.22-0.93,0.58-1.84,0.94-2.69
		c0.52-1.27,1.47-2.13,2.83-2.59c0.49-0.16,0.99-0.32,1.51-0.46l0.4-0.12c0,0.01,0.01,0.02,0.01,0.03
		C37.34,32.42,38.73,33.91,40.77,34.77z M45.03,33.84v9.75c-0.03-0.02-0.08-0.04-0.11-0.08c-0.44-0.29-0.86-0.58-1.26-0.88
		c-0.32-0.25-0.47-0.63-0.47-1.17v-2.24c0-1.26,0-2.52,0.01-3.78c0.01-1.13-0.51-1.91-1.55-2.34c-1.57-0.64-2.61-1.66-3.18-3.12
		c-0.02-0.05-0.04-0.11-0.05-0.16l0.04-0.01C39.75,32.77,42.35,33.53,45.03,33.84z M39.07,16.22c-0.01,0.02-0.02,0.04-0.02,0.05
		l-0.05-0.02c-0.05-0.02-0.15-0.05-0.15-0.13c0.02-0.09,0.02-0.17,0.02-0.26h0.39c-0.04,0.09-0.09,0.17-0.13,0.26L39.07,16.22z
		 M53.12,15.85v0.33c-0.1,0.03-0.19,0.03-0.23,0.01c-0.04-0.02-0.12-0.09-0.19-0.34C52.84,15.86,52.98,15.85,53.12,15.85z
		 M53.56,29.82c-0.04,0.13-0.09,0.25-0.13,0.37c-0.58,1.33-1.58,2.31-3.02,2.88c-1.13,0.46-1.66,1.27-1.64,2.48
		c0.01,1.06,0.01,2.12,0.01,3.18c0,0.86,0,1.74,0,2.6c0.01,0.72-0.27,1.23-0.86,1.61c-0.33,0.2-0.63,0.42-0.96,0.63v-9.73
		c2.67-0.32,5.27-1.07,6.57-4.04L53.56,29.82z M40.51,29.71c0-0.01-0.01-0.01-0.01-0.02c0.08-0.02,0.14-0.04,0.21-0.07
		c0.71-0.25,1.19-0.76,1.4-1.49c0.1-0.35,0.19-0.7,0.28-1.08L42.4,27c2.41,1.66,4.84,1.67,7.21,0.02c0.04,0.15,0.09,0.31,0.11,0.45
		c0.21,1.22,0.79,1.96,1.77,2.23c-0.19,0.33-0.44,0.62-0.78,0.9c-0.83,0.68-1.86,1.09-3.22,1.29c-1.94,0.28-3.64,0.07-5.21-0.66
		C41.47,30.85,40.89,30.36,40.51,29.71z M50.74,15.86c0.2,0.83,0.58,1.5,1.14,2c-0.01,0.33,0,0.67,0.01,0.99
		c0.02,0.88,0.04,1.72-0.23,2.52c-0.91,2.67-2.68,4.34-5.27,4.97c-0.57,0.14-1.17,0.03-1.96-0.36c-2.38-1.18-3.76-2.82-4.21-5.03
		c-0.14-0.68-0.13-1.39-0.13-2.14c0-0.33,0-0.66,0-0.96c0.57-0.51,0.94-1.17,1.14-2L50.74,15.86L50.74,15.86z M60.44,60.97
		c-4.53,0.98-9.53,1.53-14.69,1.53c-5.17,0-10.16-0.55-14.69-1.53c-0.86-4.02-1.41-9.5-1.51-14.08h32.39
		C61.83,51.46,61.3,56.95,60.44,60.97z M65.32,46.89H81.2c-1.23,5.05-7.89,10.56-17.08,13.18C64.82,56.29,65.24,51.13,65.32,46.89z
		 M27.34,60.06c-9.18-2.6-15.83-8.13-17.08-13.18h15.88C26.23,51.13,26.63,56.29,27.34,60.06z M62.35,44.94h-6.72
		c0.02-1.28,0.02-2.55,0.01-3.93c0-0.4-0.24-0.73-0.59-0.86c-0.15-0.1-0.33-0.17-0.54-0.17c-0.51,0-0.9,0.37-0.93,0.9v1.33
		c0,0.92,0,1.82-0.01,2.74v0.01h-5.23c0.23-0.15,0.46-0.32,0.7-0.47c1.09-0.72,1.64-1.76,1.64-3.08c0-0.75,0-1.51,0-2.26
		c0-1.21,0-2.43-0.01-3.65c0-0.36,0.1-0.51,0.42-0.64c2.11-0.88,3.26-2.06,4.29-4.49c1.99,0.44,3.95,1.1,4.87,3.34
		c0.68,1.68,1.09,3.4,1.44,5c0.31,1.4,0.59,2.81,0.87,4.22C62.42,43.6,62.36,44.27,62.35,44.94z M53.73,17.97L53.73,17.97
		c0.01,0,0.01,0,0.01,0c0,0.03,0,0.05,0,0.09C53.74,18.02,53.73,18,53.73,17.97z M28.15,63.85c1.77,7.2,4.62,13.08,8.17,16.86
		c-12.17-3.28-21.73-12.79-25.01-25.02C15.11,59.24,20.99,62.08,28.15,63.85z M63.31,63.85c7.18-1.76,13.06-4.61,16.84-8.16
		C76.87,67.92,67.3,77.44,55.14,80.71C58.69,76.93,61.54,71.05,63.31,63.85z M66.75,20.37c0.01-0.59,0.02-1.14,0.14-1.67
		c0.2-0.99,1.13-1.73,2.2-1.73c1.6-0.01,3.1-0.01,4.54-0.01c1.5,0,2.9,0,4.24,0.01c1.2,0,2.21,0.97,2.29,2.18
		c0.02,0.44,0.01,0.88,0.01,1.34c0,0.08,0,0.14-0.01,0.21c-4.49-1.56-8.9-1.56-13.42,0.01L66.75,20.37L66.75,20.37z M80.19,23.3
		v0.99c-0.95-0.4-1.97-1.51-2.39-2.51l0.17,0.05c0.52,0.15,1.04,0.31,1.53,0.47C80.19,22.54,80.19,22.54,80.19,23.3z M74.4,21.33
		c-2.45,1.66-5.19,2.48-7.63,3.04v-1.79c1.67-0.71,3.38-1.14,5.05-1.23c0.7-0.04,1.44-0.02,2.14-0.01H74.4z M70.25,32.32
		c-1.85-0.97-3.1-2.45-3.69-4.4c-0.15-0.48-0.46-0.75-0.94-0.84c-0.54-0.09-0.97-0.59-0.99-1.15c-0.02-0.4,0.14-0.78,0.46-1.03
		c0.05,0.37,0.24,0.71,0.54,0.94c0.33,0.25,0.74,0.36,1.16,0.27c3.17-0.66,5.67-1.57,7.87-2.9c0.44-0.25,0.84-0.55,1.23-0.83
		c0.08-0.07,0.15-0.12,0.23-0.17c0.01,0.02,0.02,0.05,0.04,0.08c0.15,0.31,0.29,0.61,0.47,0.91c0.82,1.42,1.87,2.33,3.18,2.81
		c0.56,0.2,1.08,0.16,1.46-0.1c0.32-0.22,0.52-0.56,0.6-1.01c0.29,0.22,0.47,0.59,0.47,0.98c0,0.59-0.4,1.11-0.93,1.2
		c-0.68,0.12-0.91,0.54-1.04,0.94c-0.61,1.9-1.84,3.34-3.65,4.29c-0.25,0.14-0.5,0.35-0.67,0.58c-0.6,0.82-1.53,1.29-2.58,1.29
		h-0.01c-1.05-0.01-1.99-0.48-2.59-1.31C70.72,32.64,70.49,32.44,70.25,32.32z M74.78,35.7v0.43c-0.14,0.04-0.28,0.08-0.43,0.12
		v-0.44L74.78,35.7z M72.58,35.8v0.43c-0.14-0.04-0.28-0.08-0.4-0.12c-0.01-0.13-0.01-0.27-0.01-0.4L72.58,35.8z M64.73,41.71
		c1.28-2.57,3.39-3.99,6.25-4.21c0.02,0,0.09,0.01,0.14,0.04l0.1,0.02c0.14,0.05,0.28,0.09,0.43,0.13c0.31,0.1,0.61,0.2,0.98,0.28
		c-0.01,0.97-0.01,1.92-0.01,2.9v1.44c0,0.4,0.1,0.7,0.29,0.9c0.14,0.14,0.31,0.23,0.59,0.21c0.32,0,0.84-0.14,0.84-1.08v-4.37h0.04
		c0.38-0.01,0.68-0.08,0.91-0.22c0.62-0.36,1.26-0.24,2.01-0.07c3.3,0.79,5.54,3.64,5.59,7.06v0.2h-2.6V43.5
		c-0.01-0.52-0.37-0.9-0.84-0.9h-0.01c-0.48,0-0.84,0.37-0.85,0.88v1.45H68.43v-1.38c0-0.56-0.36-0.96-0.85-0.96h-0.01
		c-0.23,0-0.43,0.08-0.58,0.23c-0.17,0.16-0.27,0.43-0.27,0.73v1.38h-1.79c-0.16-0.79-0.33-1.57-0.49-2.37
		C64.5,42.29,64.59,41.99,64.73,41.71z M26.4,32.05c0.05-0.07,0.07-0.08,0.13-0.07c0.32,0.07,0.62,0.14,0.93,0.21
		c0.4,0.08,0.81,0.16,1.2,0.25c0.47,0.13,0.9,0.37,1.27,0.67c-0.24,0.55-0.43,1.11-0.57,1.69c-0.48,2.05-0.94,4.11-1.4,6.17
		c-0.29,1.31-0.58,2.62-0.88,3.92c0,0.01,0,0.02,0,0.04h-5.93V35.1l0.15-0.02c0.32-0.05,0.63-0.1,0.94-0.17
		C23.97,34.47,25.38,33.51,26.4,32.05z M24.39,31.68c0.14-0.13,0.15-0.13,0.24-0.09c0.05,0.01,0.1,0.02,0.15,0.04
		c-0.04,0.05-0.08,0.1-0.12,0.14c-1.87,2.02-5,2.4-7.32,0.88c-0.1-0.08-0.12-0.1-0.1-0.2c0-0.07,0-0.13,0.01-0.21
		c0.63,0.47,1.28,0.76,1.99,0.92C21.24,33.59,22.96,33.08,24.39,31.68z M17.93,30.81l0.45-0.58c1.31,0.97,2.68,0.97,4,0
		c0.09,0.14,0.17,0.27,0.27,0.38c0.09,0.1,0.2,0.2,0.29,0.29c-0.63,0.56-1.52,0.84-2.48,0.85C19.49,31.78,18.58,31.42,17.93,30.81z
		 M24.96,19.09c-0.09,0.61-0.2,1.22-0.29,1.85l-0.09,0.52c-0.68-0.12-1.81-0.68-2.47-1.21l2.6-2.5
		C24.95,18.15,25.03,18.61,24.96,19.09z M16.19,21.54c-0.01-0.09-0.02-0.2-0.04-0.28c0,0,0,0,0.01,0c1.41-0.58,2.75-1.29,4-2.16
		c1.13-0.76,2.12-1.62,2.97-2.52c0.07-0.07,0.09-0.08,0.15-0.05c0.08,0.05,0.15,0.09,0.24,0.13l0.02,0.02
		C21.59,19.03,19.17,20.63,16.19,21.54z M17.06,27.13c-0.01-1.06-0.01-2.13-0.01-3.2v-1.05c1.31-0.43,2.56-0.99,3.74-1.75
		c0.63,0.59,1.35,1.06,2.13,1.39l0.09,0.04c0.21,0.09,0.43,0.17,0.67,0.24l0.05,0.08c0,0.68-0.01,1.34-0.01,2.02
		c0,0.68,0.01,1.34,0.01,2.02c0,0.46-0.17,0.78-0.56,1.01c-0.66,0.4-1.3,0.82-1.96,1.23c-0.56,0.36-1.08,0.36-1.65,0
		c-0.67-0.43-1.34-0.85-2.02-1.28C17.23,27.68,17.06,27.44,17.06,27.13z M12.77,31.49c0.05-0.01,0.13-0.02,0.17-0.04l2.68-0.6
		c0.04,0,0.07-0.01,0.09-0.01v10.84c0,0.12,0,0.25,0.04,0.4c0.08,0.36,0.36,0.58,0.74,0.59c0.38-0.01,0.66-0.24,0.73-0.61
		c0.02-0.13,0.02-0.25,0.02-0.43v-7.29h0.01c0.35,0.15,0.68,0.29,1.03,0.4c0.36,0.12,0.71,0.17,1.08,0.25
		c0.09,0.02,0.16,0.04,0.24,0.07v2.14c0.01,2.57,0.01,5.15,0,7.71h-2.36c-0.01-0.22-0.01-0.44-0.01-0.67c0-0.16,0-0.33,0-0.49
		c-0.01-0.49-0.31-0.84-0.74-0.85c-0.2-0.01-0.39,0.07-0.54,0.2c-0.16,0.15-0.25,0.38-0.26,0.66c0,0.17,0,0.35,0,0.51
		c0,0.21,0,0.43,0,0.63h-2.95V31.49H12.77z M8.98,41.5l0.12-1.39c0.04-0.47,0.07-0.96,0.1-1.43c0.08-1.07,0.15-2.18,0.27-3.26
		c0.13-1.16,0.73-2.05,1.77-2.64v2.39c0,3.26,0,6.52-0.01,9.78h-2.5C8.8,43.79,8.89,42.66,8.98,41.5z"/>
</g>
</svg>
