<?xml version="1.0" encoding="utf-8"?>
<!-- Generator: Adobe Illustrator 26.3.1, SVG Export Plug-In . SVG Version: 6.00 Build 0)  -->
<svg version="1.1" id="Layer_1" xmlns="http://www.w3.org/2000/svg" xmlns:xlink="http://www.w3.org/1999/xlink" x="0px" y="0px"
	 viewBox="0 0 90 90" style="enable-background:new 0 0 90 90;" xml:space="preserve">
<style type="text/css">
	.st0{fill:#005A84;}
</style>
<g>
	<path class="st0" d="M47.37,64.51c-0.1-0.16-0.19-0.34-0.28-0.5c-0.18-0.3-0.36-0.56-0.55-0.84c-0.28-0.41-0.32-0.65-0.04-1.08
		c3.06-4.97,3.84-10.13,2.31-15.42c-0.04-0.15-0.11-0.32-0.15-0.48h7.69l0.33,0.01c1.18,0,1.38,0,2.53,0l0.38,0h0.77h4.93h-4.93
		l8.18,0.01h16.8c0.84,0,1.53-0.67,1.53-1.48V7.79c0-0.85-0.69-1.53-1.54-1.53h-45.8c-0.83,0-1.51,0.68-1.51,1.5v12.73
		c-0.16-0.09-0.32-0.19-0.48-0.26c-1.19-0.59-2.46-1.04-3.81-1.39c-1.15-0.31-2.34-0.43-3.52-0.62c-0.16-0.02-0.32-0.07-0.48-0.11
		h-3.28c-1.17,0.2-2.36,0.35-3.52,0.61c-3.66,0.85-6.88,2.49-9.21,5.56c-0.12,0.14-0.38,0.24-0.59,0.25
		c-1.68,0.1-2.85,0.99-3.22,2.5c-0.35,1.45,0.31,2.8,1.72,3.64c0.14,0.08,0.32,0.28,0.32,0.44c0.16,3.72-0.13,7.42-1.69,10.89
		c-0.83,1.84-1.68,3.69-2.11,5.7c-1.07,4.82-0.26,9.35,2.13,13.64c0.23,0.41,0.25,0.65-0.05,1.03c-2.43,3.11-3.6,6.67-3.64,10.61
		c-0.01,1.99,0.01,3.99-0.01,5.99c-0.02,1.87,0.9,3.02,2.62,3.59h31.5h0.89h5.37c0.1-0.04,0.19-0.1,0.28-0.13
		c1.4-0.47,2.3-1.53,2.31-3.03c0.02-2.57,0.05-5.16-0.07-7.72c-0.04-0.95-0.18-1.88-0.38-2.78c-0.05-0.24-0.13-0.47-0.19-0.7
		 M38.06,23.09c0.19,0.13,0.36,0.25,0.54,0.41c0.01,0,0.02,0.01,0.04,0.02c0.38,0.31,0.74,0.65,1.1,0.99H16.47
		C21.18,19.45,32.01,18.87,38.06,23.09z M12.68,26.78c0.25-0.08,0.54-0.1,0.8-0.1h29.57c0.69,0.05,1.15,0.48,1.15,1.1
		c-0.01,0.61-0.45,1.03-1.16,1.04c-0.92,0.01-1.86,0.01-2.78,0.01H13.59c-0.23,0-0.47,0-0.69-0.02c-0.55-0.08-0.85-0.41-0.91-0.95
		C11.95,27.35,12.19,26.95,12.68,26.78z M47.44,72.41c0.01,0.19,0.02,0.37,0.02,0.56c0.01,2-0.02,4.02-0.02,6.04
		c-0.01,1.03-0.38,1.39-1.41,1.39c-0.84,0.01-1.68,0-2.51,0h-2.54v-3.89v-1.6c0-0.69,0.02-1.39-0.01-2.08
		c-0.02-0.59-0.44-0.97-1.01-0.99c-0.57-0.02-1.01,0.32-1.1,0.91c-0.04,0.2-0.02,0.42-0.02,0.62c-0.01,2.1-0.01,4.2-0.01,6.3v0.71
		H17.38v-6.97c0-0.14,0-0.3-0.01-0.44c-0.04-0.72-0.45-1.14-1.08-1.14c-0.66,0-1.05,0.43-1.05,1.2c-0.01,2.2,0,4.41,0,6.61v0.77
		h-2.87c-0.81,0-1.63,0.01-2.44,0c-0.67-0.01-1.14-0.38-1.12-1.04c0.05-3.2-0.31-6.42,0.32-9.6c1.19-6.08,6.48-11,12.59-11.76
		c1.99-0.25,3.02-1.34,3.18-3.33c0.01-0.1,0.02-0.2,0.05-0.35c0.68,0.1,1.34,0.18,2.1,0.28v13.44c0,1.08,0.35,1.6,1.07,1.6
		c0.73,0,1.08-0.53,1.08-1.59c0-4.29,0.01-8.57-0.01-12.85c0-0.53,0.16-0.71,0.66-0.72c0.48-0.02,0.95-0.12,1.46-0.2
		c0.02,0.16,0.05,0.28,0.05,0.41c0.13,1.9,1.17,3.03,3.09,3.29c1.84,0.24,3.6,0.79,5.21,1.72c2.96,1.71,5.05,3.93,6.32,6.63
		C46.85,68.15,47.33,70.17,47.44,72.41z M30.86,45.02c2.07,0.24,3.59,1.99,3.66,4.07c0.05,1.71,0.05,1.72-1.51,2.36
		c-3.65,1.5-7.23,1.34-10.77-0.36c-0.42-0.2-0.67-0.43-0.6-0.95c0.08-0.55-0.01-1.14,0.1-1.69c0.38-2.06,2.07-3.45,4.24-3.51
		c0.71-0.02,1.41-0.01,2.14-0.01V45C29.04,45,29.96,44.92,30.86,45.02z M33.5,53.67c0.05-0.1,0.19-0.16,0.3-0.2
		c3.33-1.4,5.83-3.7,7.54-6.81c0.08-0.14,0.16-0.3,0.24-0.44c0.01-0.01,0.02-0.02,0.03-0.04c0.02-0.02,0.04-0.04,0.08-0.08
		c0.13,0.19,0.25,0.37,0.37,0.56c1.41,2.11,2.57,4.27,3.26,6.68c0.36,1.28,0.6,2.61,0.84,3.93c0.07,0.37-0.01,0.84-0.18,1.2
		c-0.35,0.81-0.79,1.6-1.23,2.45c-0.56-0.49-1.02-0.93-1.51-1.34c-2.51-2.05-5.37-3.3-8.58-3.72C33.67,55.73,33.02,54.54,33.5,53.67
		z M40.21,43.87c-0.31,0.91-0.69,1.75-1.19,2.53c-0.61,0.99-1.36,1.88-2.27,2.73c-0.11-0.54-0.14-1.01-0.26-1.46
		c-0.68-2.68-2.91-4.61-5.77-4.81c-1.74-0.12-3.48-0.12-5.23,0c-3.36,0.25-5.65,2.67-5.99,6.24c-0.13-0.08-0.25-0.13-0.35-0.23
		c-1.1-1.05-1.99-2.26-2.63-3.65c-0.08-0.2-0.12-0.5-0.02-0.68c1.41-2.49,2.38-5.12,2.86-7.94c0.01-0.07,0.05-0.12,0.1-0.2H37.9
		c0.36,2.25,1.01,4.35,1.96,6.32c0.08,0.2,0.19,0.39,0.3,0.61c0.04,0.08,0.07,0.16,0.08,0.26C40.24,43.7,40.23,43.79,40.21,43.87z
		 M18.66,51.28c1.07,0.79,2.22,1.5,3.44,2.06c0.78,0.35,0.6,0.87,0.6,1.41c0,0.59-0.34,0.93-0.89,1.05
		c-0.49,0.11-1.01,0.14-1.5,0.25c-3.09,0.62-5.78,2.03-8.2,4.21c-0.47-1.05-1.22-1.93-1.03-3.21c0.55-3.63,1.79-6.95,3.9-10.09
		C15.99,48.69,17.14,50.17,18.66,51.28z M47.37,52.46c-0.12-0.25-0.2-0.36-0.23-0.47c-0.65-1.88-1.5-3.65-2.53-5.32
		c-0.25-0.42-0.53-0.83-0.79-1.23c-0.3-0.44-0.58-0.89-0.85-1.35c-0.26-0.45-0.51-0.92-0.74-1.38c-1.01-1.96-1.71-4.06-2.15-6.3
		c0.13-0.08,0.28-0.16,0.42-0.25c0.38-0.25,0.6-0.68,0.42-1.08c-0.16-0.34-0.53-0.57-0.83-0.81c-0.1-0.08-0.3-0.04-0.44-0.04
		c-7.34,0-14.68,0-22.03,0.02c-0.36,0-0.8,0.14-1.05,0.37c-0.5,0.45-0.34,1.16,0.26,1.62c0.14,0.11,0.28,0.38,0.25,0.56
		c-0.6,2.92-1.7,5.66-3.34,8.15c-1.5,2.29-2.84,4.64-3.69,7.26c-0.02,0.07-0.07,0.13-0.18,0.34c-0.11-2.23,0.23-4.24,0.91-6.19
		c0.45-1.26,1.05-2.45,1.57-3.69c1.21-2.91,1.82-5.93,1.79-9.07c-0.01-0.83,0-1.68,0-2.56h29c0,0.6,0.01,1.17,0,1.75
		c-0.05,2.98,0.31,5.9,1.35,8.72c0.14,0.41,0.32,0.81,0.48,1.22c0.47,1.12,0.97,2.22,1.41,3.35c0.08,0.2,0.14,0.41,0.22,0.6
		c0.53,1.51,0.74,3.09,0.84,4.68C47.44,51.67,47.41,51.97,47.37,52.46z M83.8,43.18h-36.3c-0.07-0.16-0.14-0.32-0.21-0.48
		c-0.92-2.18-1.7-4.38-1.87-6.78c-0.13-1.83-0.11-3.69-0.12-5.53c0-0.18,0.14-0.37,0.26-0.53c0.83-1.05,1.04-2.2,0.49-3.42
		c-0.57-1.24-1.6-1.83-2.96-1.91c-0.23-0.01-0.53-0.1-0.65-0.25c-0.38-0.5-0.8-0.99-1.26-1.41v-0.01c-0.04-0.04-0.09-0.08-0.13-0.12
		V9.26H83.8V43.18h0.02H83.8z"/>
	<path class="st0" d="M75.51,20.5c0.87,0,1.57-0.41,1.57-0.91s-0.7-0.91-1.57-0.91h-25.4c-0.87,0-1.57,0.41-1.57,0.91
		s0.7,0.91,1.57,0.91"/>
	<path class="st0" d="M75.51,25.12c0.87,0,1.57-0.41,1.57-0.91c0-0.5-0.7-0.91-1.57-0.91h-25.4c-0.87,0-1.57,0.41-1.57,0.91
		c0,0.5,0.7,0.91,1.57,0.91"/>
	<path class="st0" d="M75.51,29.74c0.87,0,1.57-0.41,1.57-0.91s-0.7-0.91-1.57-0.91h-25.4c-0.87,0-1.57,0.41-1.57,0.91
		s0.7,0.91,1.57,0.91"/>
	<path class="st0" d="M75.51,34.36c0.87,0,1.57-0.41,1.57-0.91s-0.7-0.91-1.57-0.91h-25.4c-0.87,0-1.57,0.41-1.57,0.91
		s0.7,0.91,1.57,0.91"/>
	<path class="st0" d="M28.08,50.66L28.08,50.66c1.33-0.04,2.39-0.56,3.17-1.52c0.54-0.66,0.48-1.51-0.13-2.02
		c-0.59-0.49-1.36-0.43-1.95,0.18c-0.39,0.39-0.76,0.58-1.1,0.58l0,0c-0.34,0-0.68-0.19-1.05-0.56c-0.62-0.62-1.41-0.69-2-0.18
		c-0.59,0.53-0.62,1.36-0.08,2.02C25.74,50.11,26.79,50.62,28.08,50.66L28.08,50.66z"/>
</g>
</svg>
