<?xml version="1.0" encoding="utf-8"?>
<!-- Generator: Adobe Illustrator 26.3.1, SVG Export Plug-In . SVG Version: 6.00 Build 0)  -->
<svg version="1.1" id="Layer_1" xmlns="http://www.w3.org/2000/svg" xmlns:xlink="http://www.w3.org/1999/xlink" x="0px" y="0px"
	 viewBox="0 0 90 90" style="enable-background:new 0 0 90 90;" xml:space="preserve">
<style type="text/css">
	.st0{fill:#005A84;}
	.st1{fill:none;stroke:#005A84;stroke-width:2;stroke-miterlimit:10;}
</style>
<g>
	<g>
		<g>
			<path class="st0" d="M77.51,14.44v62.47c0,0.08,0,0.17-0.01,0.22c-0.04,0.4-0.16,0.76-0.35,1.05h-2.14
				c-0.19-0.29-0.32-0.65-0.35-1.05c-0.01-0.07-0.01-0.15-0.01-0.22V14.44c0-1.09-0.65-2-1.46-2H17.9c-0.81,0-1.46,0.9-1.46,2v62.47
				c0,0.08,0,0.17-0.01,0.22c-0.04,0.4-0.16,0.76-0.35,1.05h-2.14c-0.19-0.29-0.32-0.65-0.35-1.05c-0.01-0.07-0.01-0.15-0.01-0.22
				V14.44c0-3.24,1.94-5.88,4.32-5.88h55.29C75.57,8.56,77.51,11.2,77.51,14.44z"/>
			<path class="st0" d="M16.98,78.18c-0.34,0.73-1.1,1.23-1.98,1.23c-0.86,0-1.62-0.49-1.96-1.23H16.98z"/>
			<path class="st0" d="M78.05,78.18c-0.34,0.73-1.1,1.23-1.98,1.23c-0.86,0-1.62-0.49-1.96-1.23H78.05z"/>
			<path d="M16.08,78.18c-0.26,0.29-0.64,0.47-1.08,0.47c-0.42,0-0.81-0.19-1.06-0.47h-1.73c0.39,1.16,1.5,1.98,2.79,1.98
				c1.31,0,2.41-0.82,2.81-1.98H16.08z M77.15,78.18c-0.26,0.29-0.64,0.47-1.08,0.47c-0.42,0-0.81-0.19-1.06-0.47h-1.73
				c0.39,1.16,1.5,1.98,2.79,1.98c1.31,0,2.41-0.82,2.81-1.98H77.15z"/>
		</g>
	</g>
	<g>
		<g>
			<path class="st0" d="M85.69,79.6c0,0.77-0.65,1.41-1.46,1.41H6.85c-0.81,0-1.46-0.63-1.46-1.41c0-0.78,0.65-1.42,1.46-1.42h77.38
				C85.04,78.18,85.69,78.81,85.69,79.6z"/>
		</g>
	</g>
</g>
<path class="st0" d="M41.26,80.56h7.69c1.43,0,2.58-1.16,2.58-2.58V66.26c0-1.43-1.16-2.58-2.58-2.58h-3.41v14.3h-1.43v-14.3h-2.84
	c-1.43,0-2.58,1.16-2.58,2.58v11.72C38.68,79.4,39.84,80.56,41.26,80.56z"/>
<path class="st1" d="M43.72,41.84h3.07c1.43,0,2.58-1.16,2.58-2.58V36.2c0-1.43-1.16-2.58-2.58-2.58h-3.07
	c-1.43,0-2.58,1.16-2.58,2.58v3.07C41.14,40.69,42.29,41.84,43.72,41.84z"/>
<path class="st1" d="M43.72,56.76h3.07c1.43,0,2.58-1.16,2.58-2.58v-3.07c0-1.43-1.16-2.58-2.58-2.58h-3.07
	c-1.43,0-2.58,1.16-2.58,2.58v3.07C41.14,55.6,42.29,56.76,43.72,56.76z"/>
<path class="st1" d="M61.76,41.84h3.07c1.43,0,2.58-1.16,2.58-2.58V36.2c0-1.43-1.16-2.58-2.58-2.58h-3.07
	c-1.43,0-2.58,1.16-2.58,2.58v3.07C59.18,40.69,60.34,41.84,61.76,41.84z"/>
<path class="st1" d="M26.09,41.84h3.07c1.43,0,2.58-1.16,2.58-2.58V36.2c0-1.43-1.16-2.58-2.58-2.58h-3.07
	c-1.43,0-2.58,1.16-2.58,2.58v3.07C23.51,40.69,24.67,41.84,26.09,41.84z"/>
<path class="st1" d="M43.72,27.12h3.07c1.43,0,2.58-1.16,2.58-2.58v-3.07c0-1.43-1.16-2.58-2.58-2.58h-3.07
	c-1.43,0-2.58,1.16-2.58,2.58v3.07C41.14,25.97,42.29,27.12,43.72,27.12z"/>
<path class="st1" d="M61.76,27.12h3.07c1.43,0,2.58-1.16,2.58-2.58v-3.07c0-1.43-1.16-2.58-2.58-2.58h-3.07
	c-1.43,0-2.58,1.16-2.58,2.58v3.07C59.18,25.97,60.34,27.12,61.76,27.12z"/>
<path class="st1" d="M26.09,27.12h3.07c1.43,0,2.58-1.16,2.58-2.58v-3.07c0-1.43-1.16-2.58-2.58-2.58h-3.07
	c-1.43,0-2.58,1.16-2.58,2.58v3.07C23.51,25.97,24.67,27.12,26.09,27.12z"/>
<path class="st1" d="M61.76,56.76h3.07c1.43,0,2.58-1.16,2.58-2.58v-3.07c0-1.43-1.16-2.58-2.58-2.58h-3.07
	c-1.43,0-2.58,1.16-2.58,2.58v3.07C59.18,55.6,60.34,56.76,61.76,56.76z"/>
<path class="st1" d="M26.09,56.76h3.07c1.43,0,2.58-1.16,2.58-2.58v-3.07c0-1.43-1.16-2.58-2.58-2.58h-3.07
	c-1.43,0-2.58,1.16-2.58,2.58v3.07C23.51,55.6,24.67,56.76,26.09,56.76z"/>
</svg>
