<?xml version="1.0" encoding="UTF-8"?><svg id="Layer_2" xmlns="http://www.w3.org/2000/svg" viewBox="0 0 500.9 457.99"><defs><style>.cls-1{fill:#005a84;}</style></defs><g id="Layer_1-2"><g><path class="cls-1" d="M75.79,194.99h110.99c15.12,0,29.75,4.29,42.3,12.37l16.1,10.22c.61,.37,1.35,.73,2.27,.98,1.22,.37,2.08,.49,2.94,.49,.8,0,1.59-.12,2.69-.43,.98-.31,1.71-.61,2.08-.92l16.47-10.41c12.61-8.08,27.24-12.37,42.36-12.37h110.93c5.45,0,9.86-4.35,9.86-9.73V9.67c0-5.33-4.41-9.67-9.86-9.67h-110.93c-18.86,0-37.16,5.33-53.08,15.43l-10.53,6.8-10.59-6.8C223.94,5.33,205.64,0,186.78,0H75.79c-5.39,0-9.8,4.35-9.8,9.67V185.25c0,5.39,4.35,9.73,9.79,9.73ZM250.39,96.3c5.39,0,9.8-4.35,9.8-9.73V39.06l11.45-7.35c12.73-8.08,27.37-12.37,42.36-12.37h101.01V175.46h-101.01c-18.98,0-37.28,5.39-53.08,15.49l-.73,.49V120.66c0-5.39-4.41-9.73-9.8-9.73s-9.86,4.35-9.86,9.73v70.83l-.73-.43c-15.79-10.16-34.1-15.55-53.02-15.55H85.65V19.41h101.14c15.06,0,29.63,4.29,42.3,12.37l11.45,7.35v47.51c-.06,5.33,4.41,9.67,9.86,9.67Z"/><path class="cls-1" d="M314,213.72c-18.86,0-37.22,5.39-53.08,15.55l-10.53,6.8-10.59-6.8c-15.79-10.16-34.1-15.55-53.02-15.55h-42.43c-5.45,0-9.86,4.35-9.86,9.73s4.41,9.73,9.86,9.73h42.43c15.06,0,29.63,4.29,42.3,12.37l15.86,10.1c1.59,1.04,3.43,1.59,5.39,1.59s3.8-.49,5.45-1.53l15.86-10.16c12.73-8.08,27.37-12.37,42.36-12.37h42.36c5.45,0,9.86-4.35,9.86-9.73s-4.41-9.73-9.86-9.73h-42.36Z"/><path class="cls-1" d="M490.98,364.5h-13.22V105.48c0-15.67-12.92-28.47-28.83-28.47-5.39,0-9.8,4.35-9.8,9.73s4.41,9.73,9.8,9.73c5.08,0,9.18,4.04,9.18,9V364.5H42.79V105.48c0-4.96,4.1-9,9.06-9,5.45,0,9.86-4.35,9.86-9.73s-4.41-9.73-9.86-9.73c-15.92,0-28.83,12.8-28.83,28.47V364.5H9.8c-5.39,0-9.8,4.35-9.8,9.73,0,43.83,36.98,83.75,77.57,83.75H423.28c40.65,0,77.63-39.92,77.63-83.75-.06-5.39-4.53-9.73-9.92-9.73Zm-67.77,74.01H77.5c-29.45,0-52.47-28.22-57-54.55H153.05v1.41c0,17.63,14.57,31.96,32.45,31.96h129.73c17.88,0,32.45-14.33,32.45-31.96v-1.41h132.66c-4.65,26.26-27.73,54.55-57.12,54.55Zm-95.32-53.14c0,6.92-5.69,12.55-12.67,12.55H185.5c-6.98,0-12.67-5.63-12.67-12.55v-1.41h155.07v1.41Z"/><path class="cls-1" d="M75.79,347.06H424.93c5.45,0,9.86-4.41,9.86-9.8v-113.75c0-5.39-4.41-9.73-9.86-9.73s-9.86,4.35-9.86,9.73v104.14H85.71v-104.14c0-5.39-4.41-9.73-9.86-9.73s-9.8,4.35-9.8,9.73v113.75c-.06,5.39,4.28,9.8,9.73,9.8Z"/><path class="cls-1" d="M190.33,124.52H125.32c-5.45,0-9.86,4.35-9.86,9.73s4.41,9.8,9.86,9.8h65.02c5.45,0,9.86-4.41,9.86-9.8s-4.41-9.73-9.86-9.73Z"/><path class="cls-1" d="M190.33,82.77H125.32c-5.45,0-9.86,4.41-9.86,9.8s4.41,9.73,9.86,9.73h65.02c5.45,0,9.86-4.35,9.86-9.73s-4.41-9.8-9.86-9.8Z"/><path class="cls-1" d="M190.33,41.14H125.32c-5.45,0-9.86,4.35-9.86,9.73s4.41,9.8,9.86,9.8h65.02c5.45,0,9.86-4.41,9.86-9.8s-4.41-9.73-9.86-9.73Z"/><path class="cls-1" d="M310.32,144.05h65.14c5.39,0,9.8-4.41,9.8-9.8s-4.41-9.73-9.8-9.73h-65.14c-5.45,0-9.86,4.35-9.86,9.73s4.41,9.8,9.86,9.8Z"/><path class="cls-1" d="M310.32,102.3h65.14c5.39,0,9.8-4.35,9.8-9.73s-4.41-9.8-9.8-9.8h-65.14c-5.45,0-9.86,4.41-9.86,9.8s4.41,9.73,9.86,9.73Z"/><path class="cls-1" d="M310.32,60.67h65.14c5.39,0,9.8-4.41,9.8-9.8s-4.41-9.73-9.8-9.73h-65.14c-5.45,0-9.86,4.35-9.86,9.73s4.41,9.8,9.86,9.8Z"/></g></g></svg>