<?xml version="1.0" encoding="UTF-8"?><svg id="Layer_2" xmlns="http://www.w3.org/2000/svg" viewBox="0 0 450.59 450.82"><defs><style>.cls-1{fill:#005a84;}</style></defs><g id="Layer_1-2"><g><path class="cls-1" d="M450.26,433.04c-.25-8.57-.51-17.53-1.52-26.22-2.86-23.43-14.6-41.02-34.92-52.26-9.27-5.14-19.56-8.95-31.43-11.75-1.71-.38-1.71-.44-1.84-1.9l-.13-1.84c-.44-6.92-.83-14.1-2.41-21.02-4.7-20.64-10.03-42.42-16.26-66.74l-2.35-9.08c-4.25-16.13-8.64-32.76-9.65-49.59-.51-8.76-.83-17.53-1.08-26.29-.32-9.21-.57-18.41-1.14-27.62-1.33-21.84-3.43-40.13-8.95-58.16-.13-.32,0-1.27,.32-1.97,5.84-11.37,3.43-21.72-6.79-29.15-1.08-.76-2.22-1.46-3.37-2.1-.83-.44-1.59-.89-2.35-1.4-.83-.57-1.84-1.27-2.35-1.97-10.79-14.03-24.95-24.95-42.23-32.57C256.72,.37,229.79-2.62,199.5,2.27c-27.69,4.44-50.67,16.57-68.26,36-3.37,3.75-7.11,7.62-11.94,10.6-10.16,6.29-13.59,15.43-9.46,25.15,2.16,5.08,1.59,9.14-.06,13.65-.44,1.33-.76,2.67-1.02,4.06l-.19,1.02c-5.52,27.43-6.67,54.99-7.49,83.12l-.06,1.4c-.32,10.48-.57,21.34-2.73,31.5-4,19.11-9.08,38.42-14.1,57.08l-1.08,4c-6.16,23.24-12.57,47.31-13.27,72.26-.13,.06-.51,.19-.76,.25l-.89,.25c-2.54,.83-5.08,1.65-7.62,2.48-6.1,1.9-12.38,3.94-18.35,6.54-16.76,7.37-28.64,19.11-35.3,34.92-3.87,9.21-6.1,19.62-6.73,31.88-.25,5.59-.19,11.18-.13,16.64,.06,2.41,.06,4.83,.06,7.18v2.79H15.04l.19-2.6c.19-3.43,.38-6.79,.51-10.1,.38-7.3,.7-14.22,1.46-21.21,2.22-21.21,12.95-36.26,31.75-44.77,7.05-3.17,14.86-5.84,23.24-8,21.72-5.59,44.77-12.38,65.78-23.62,.57-.32,.76-.32,.76-.32,0,0,.19,.06,.76,.44,15.05,11.81,32.19,20.13,50.8,24.76,3.3,.83,6.67,1.52,10.03,2.22l2.29,.51v77.98c0,.89,0,1.78,.06,2.6,.32,4.7,3.11,7.56,7.68,7.87h.57c4.25,0,7.43-3.05,7.87-7.68,.06-.89,.06-1.84,.06-2.73v-76.52c34.67,1.14,65.78-8.64,92.45-29.15,.19-.06,.57-.06,.63-.13,18.73,9.97,38.86,16.26,57.85,21.59l.95,.25c10.67,2.98,21.72,6.1,31.81,10.6,16.95,7.56,27.24,21.4,29.78,40.07,1.08,8.13,1.46,16.57,1.78,24.76,.13,3.3,.25,6.67,.44,9.97,.38,7.68,5.14,8.83,8,8.83h0c2.29,0,4.25-.83,5.71-2.29,1.08-1.14,2.41-3.24,2.29-6.79-.13-2.8-.19-5.72-.32-8.57ZM152.01,41c18.22-15.68,44.96-24.64,74.17-24.57,28.51,.19,54.93,9.27,72.51,24.57-24.7-3.24-49.08-4.83-73.47-4.83-24.38,0-48.64,1.59-73.21,4.83Zm150.49,16.89c1.65,.19,3.3,.38,4.95,.57,2.29,.25,4.57,.57,6.86,.7,3.43,.25,6.54,1.71,9.78,4.7,1.4,1.27,2.03,3.05,1.65,4.7-.32,1.59-1.46,2.86-3.11,3.49-2.29,.83-4.89,1.08-6.79,.7-31.5-6.41-63.63-7.3-90.93-7.37h0c-27.11,.06-59.05,1.02-90.17,7.43-3.17,.63-5.97,.25-7.81-1.02-1.14-.83-1.84-1.97-2.03-3.37-.19-1.21,.25-3.05,.95-3.81,2.48-2.98,5.71-4.76,9.59-5.33,33.46-4.76,62.1-7.05,88.45-7.05,7.18,0,14.16,.19,21.02,.51,13.4,.63,26.99,2.03,40.19,3.43,5.78,.57,11.62,1.14,17.4,1.71ZM125.72,90.85c.19-.76,.38-1.52,.57-2.16,8.25,1.14,16.13-.44,23.81-2.03,3.94-.83,8-1.65,12-2.03,24-2.41,48.89-3.43,76.07-2.98,29.84,.44,54.1,2.79,76.26,7.24,3.11,.63,6.35,.19,8.45-.25,.83-.19,1.21-.13,1.27-.19,.06,.13,.19,.38,.25,.95,.57,3.37,1.27,6.79,1.97,10.16,1.33,6.48,2.67,13.21,3.17,19.75,1.52,19.3,2.67,40.26,3.56,65.91,.63,17.84,4.06,35.11,8.13,51.31-3.43-5.78-6.86-11.68-9.97-17.72-7.87-15.37-9.52-32.45-10.16-48.64-.57-15.43-.83-29.53-.7-43.12,.06-9.52-3.94-17.08-11.87-22.61-11.68-8.13-25.78-11.3-43.12-9.65-6.54,.63-13.21,1.84-19.68,3.68-13.72,3.81-27.05,3.87-40.77,0-16.07-4.44-29.53-5.33-42.23-2.67-9.02,1.9-15.94,4.83-21.65,9.21-7.24,5.52-10.86,12.64-10.99,21.72-.38,22.35-1.02,40.96-1.97,58.55-.83,15.37-6.03,30.61-15.75,46.48l-3.24,5.27c.13-.51,.25-1.02,.44-1.52,7.24-25.53,7.87-52.2,8.38-75.69,.57-28.19,2.98-49.47,7.75-68.96Zm48.26,206.37c.51-3.75,1.02-7.43,1.27-11.11,.25-3.56,.19-7.18,.13-11.11v-.06c33.21,23.05,66.67,22.99,99.69-.13v5.14c-.06,6.67-.19,13.46,2.1,20.07-29.34,15.62-73.91,15.68-103.57,.13l.38-2.92Zm90.8-35.24c-2.41,1.46-4.83,2.92-7.05,4.64-6.98,5.27-14.35,8.06-22.03,8.32-8.19,.25-16.7,.51-24.7-.63-4.7-.7-10.1-2.79-15.62-6.1-9.4-5.65-16.13-10.41-21.72-15.49-10.22-9.14-17.46-21.4-22.61-38.29,.7,.44,1.46,.95,2.29,1.59,2.92,2.22,5.97,4.51,8.45,7.18,8.95,9.59,20.38,12.7,34.1,9.21l2.67-.7c3.56-.89,7.11-1.78,10.6-2.79,10.35-2.98,20.83-2.98,32.07-.06,8.06,2.1,16.19,3.43,24.07,4.76,5.91,.95,11.75-.83,17.27-5.33,1.9-1.59,3.75-3.17,5.59-4.76,2.41-2.1,4.83-4.19,7.37-6.16,1.27-.95,2.54-1.9,3.87-2.73-7.3,22.42-18.35,37.65-34.61,47.37Zm-5.08-45.15l-3.37-.83c-3.37-.83-6.79-1.65-10.16-2.67-14.1-4.06-28.7-4-43.43,.38-3.94,1.14-8.13,1.9-12.13,2.67-1.78,.32-3.56,.63-5.27,1.02-2.86,.57-5.4-.13-7.87-2.29-3.24-2.86-6.54-5.65-9.78-8.45-6.22-5.33-13.97-10.92-24.32-12.26,.13-1.33,.25-2.6,.44-3.87,.51-4.83,1.02-9.4,1.21-14.1l.06-.89c.57-15.56,1.21-31.69,1.14-47.56,0-5.4,2.1-8.76,7.24-11.68,7.62-4.32,16.19-6.16,25.53-5.52,8.06,.57,14.99,1.65,21.27,3.37,17.08,4.64,33.4,4.57,49.97-.06,14.73-4.13,25.91-4.64,36.38-1.65,4.89,1.4,9.59,3.94,13.97,6.48,1.46,.89,3.43,2.54,3.56,7.37,.44,19.3,1.14,38.16,1.97,59.12,.13,2.67,.44,5.27,.83,8.06,.06,.32,.06,.7,.13,1.02-12.83,1.65-22.1,9.72-30.48,17.91-5.02,4.7-10.22,6.16-16.89,4.44Zm-126.3,9.59l2.86-5.21c5.14,15.75,12.38,28.64,22.03,39.31,.44,.51,.76,1.27,.76,1.71,.13,8.95,.13,17.91-.06,26.86,0,1.02-.19,2.03-.44,3.24-3.43-1.84-5.91-2.86-8.38-2.03-2.86,.89-4.44,3.68-6.6,8.13l-2.86,5.84c-2.1,4.25-4.13,8.45-6.29,12.64-.63,1.21-1.46,2.22-2.16,2.6-15.81,8.89-32.76,14.54-46.23,18.41l.19-1.9c.38-4.13,.83-8.19,1.46-12.19,1.14-7.05,2.48-15.18,4.44-22.92,1.21-4.76,3.05-9.27,5.27-13.14,3.75-6.48,7.68-12.89,11.62-19.3,3.62-5.84,7.18-11.75,10.67-17.65,4.7-8.13,9.21-16.26,13.72-24.38Zm16.89,94.74c1.84-3.17,3.43-6.54,5.02-9.84l.7-1.46c46.67,24.32,92.01,24.32,138.43,0l.7,1.33c1.84,3.68,3.68,7.37,5.33,11.11-.19,.32-.44,.63-.63,.76-13.02,10.03-27.3,16.95-42.48,20.7-38.8,9.52-74.61,2.73-106.42-20.26-1.02-.76-1.21-1.08-1.21-1.08,.06,0,.06-.32,.57-1.27Zm149.67-30.86c-.63-.19-1.21-.25-1.84-.25-2.16,0-4.25,1.02-6.29,2.16-.25-1.27-.44-2.48-.51-3.56-.19-8.7-.13-17.4-.06-26.1,0-.7,.32-1.46,.57-1.78,9.97-11.05,17.33-24.13,22.35-39.81,5.02,11.62,11.62,22.29,18.1,32.7l4.32,6.98c1.02,1.65,1.97,3.37,2.98,5.02,2.16,3.75,4.44,7.62,7.05,11.18,10.48,14.22,13.78,30.86,15.43,43.69,.63,4.7,1.21,9.4,1.78,14.35l.38,3.05c-19.49-5.71-34.1-11.56-46.93-18.86-.44-.25-1.21-1.71-1.46-2.29-2.03-4-3.94-7.94-5.91-11.94l-4.06-8.19c-1.27-2.79-2.98-5.52-5.91-6.35Z"/><path class="cls-1" d="M232.21,394.82h.32c5.4,0,9.59-4,9.78-9.4,.19-5.46-3.94-9.97-9.33-10.16-2.73-.13-5.33,.83-7.3,2.67s-3.05,4.32-3.05,6.98c-.06,5.46,4.06,9.72,9.59,9.91Z"/><path class="cls-1" d="M232.21,411.39c-5.4,.13-9.65,4.64-9.59,10.03,.06,5.52,4.32,9.59,9.84,9.59h.06c5.52,0,9.72-4.19,9.78-9.72,0-2.73-1.02-5.27-2.92-7.11-1.9-1.84-4.38-2.67-7.17-2.79Z"/></g></g></svg>